<?xml version="1.0" standalone="no"?>
<!DOCTYPE svg PUBLIC "-//W3C//DTD SVG 20010904//EN"
 "http://www.w3.org/TR/2001/REC-SVG-20010904/DTD/svg10.dtd">
<svg version="1.0" xmlns="http://www.w3.org/2000/svg"
 width="528.000000pt" height="528.000000pt" viewBox="0 0 528.000000 528.000000"
 preserveAspectRatio="xMidYMid meet">
<metadata>
Created by potrace 1.14, written by Peter Selinger 2001-2017
</metadata>
<g transform="translate(0.000000,528.000000) scale(0.100000,-0.100000)"
fill="#000000" stroke="none">
<path d="M2440 5254 c-656 -60 -1213 -316 -1666 -769 -219 -218 -347 -391
-481 -651 -140 -271 -223 -531 -269 -849 -25 -167 -25 -523 0 -690 47 -320
128 -577 270 -850 123 -239 255 -422 445 -618 414 -426 919 -686 1516 -779
201 -31 569 -31 770 0 567 88 1051 327 1453 717 400 387 658 866 757 1399 133
727 -37 1448 -483 2046 -106 142 -370 408 -505 509 -367 274 -773 444 -1218
512 -129 19 -477 33 -589 23z m289 -821 c69 -22 133 -79 161 -145 43 -100 11
-227 -75 -292 l-35 -27 0 -469 0 -470 23 -13 c23 -15 530 -288 604 -327 l43
-22 85 48 c47 26 85 52 85 56 0 5 4 7 9 4 4 -3 18 3 30 13 12 10 36 25 54 32
17 7 34 16 37 19 3 3 20 12 37 19 18 7 45 24 60 37 16 13 35 24 44 24 8 0 21
6 27 13 7 6 101 62 209 122 l197 110 13 58 c17 77 33 105 86 155 140 128 384
72 468 -107 31 -67 28 -167 -8 -233 -67 -123 -222 -174 -361 -119 l-52 21
-434 -240 c-239 -132 -440 -240 -446 -240 -6 0 -9 -8 -6 -17 2 -10 7 -148 10
-308 4 -159 9 -362 12 -450 l6 -161 -467 -273 c-257 -150 -475 -275 -484 -278
-14 -3 -219 112 -775 437 l-179 105 7 355 c3 195 9 408 13 473 5 106 4 117
-11 117 -37 0 -390 217 -426 262 -14 18 -41 50 -61 72 -21 23 -37 44 -38 49 0
4 -8 23 -16 43 -8 20 -15 44 -15 53 0 41 -113 149 -157 151 -7 0 -22 -19 -34
-42 -24 -49 -82 -113 -119 -133 -24 -13 -27 -12 -39 16 -7 16 -10 41 -7 56 5
17 1 31 -10 44 -9 11 -12 19 -7 19 6 0 14 11 17 25 4 14 11 25 16 25 6 0 10 7
10 15 0 8 -5 14 -12 13 -6 -2 -14 5 -16 15 -2 10 2 17 12 17 26 0 19 39 -9 50
-38 14 -30 30 16 30 48 0 44 15 -6 24 -39 8 -40 9 -23 36 11 16 9 22 -7 34
-19 15 -19 15 -1 16 19 0 19 0 0 21 l-19 22 30 -7 c49 -11 118 -59 146 -101
15 -22 32 -65 38 -95 l11 -55 222 -120 c122 -66 280 -152 352 -191 72 -38 170
-92 219 -118 l87 -48 324 183 324 183 6 371 c3 203 5 411 3 462 -2 86 -4 93
-25 103 -88 40 -144 130 -144 230 0 179 188 303 371 243z m-1949 -1113 c0 -5
-7 -10 -16 -10 -8 0 -12 5 -9 10 3 6 10 10 16 10 5 0 9 -4 9 -10z"/>
<path d="M2270 2706 l-375 -214 -6 -213 c-4 -118 -9 -316 -12 -441 l-5 -227
201 -117 c111 -64 287 -166 390 -227 163 -94 192 -108 210 -99 12 6 189 110
392 230 l370 220 0 68 c0 38 -4 236 -9 441 l-9 372 -384 211 c-211 115 -385
210 -386 209 -1 0 -171 -96 -377 -213z"/>
</g>
</svg>
