<svg xmlns="http://www.w3.org/2000/svg" viewBox="0 0 535.11 161.42"><defs><style>.cls-1,.cls-2{font-size:38.87px;}.cls-1{font-family:Arial-Black, Arial;font-weight:800;}.cls-2{font-family:ArialMT, Arial;}</style></defs><g id="Layer_2" data-name="Layer 2"><g id="Layer_1-2" data-name="Layer 1"><path d="M70.71,21.41,140,90.71,70.71,160,1.41,90.71l69.3-69.3m0-1.41L0,90.71l70.71,70.71,70.71-70.71L70.71,20Z"/><path d="M70.71,11.41,140,80.71,70.71,150,1.41,80.71l69.3-69.3m0-1.41L0,80.71l70.71,70.71,70.71-70.71L70.71,10Z"/><path d="M70.71,1.41,140,70.71,70.71,140,1.41,70.71l69.3-69.3m0-1.41L0,70.71l70.71,70.71,70.71-70.71L70.71,0Z"/><text class="cls-1" transform="translate(41.24 92.59)">BC</text><path d="M181.41,14.1h17.75q4.43,0,6.81,2.19a7.15,7.15,0,0,1,2.38,5.45,6.85,6.85,0,0,1-1.7,4.66,7.58,7.58,0,0,1-3.31,2.06,8.58,8.58,0,0,1,4.87,2.73,7.5,7.5,0,0,1,1.56,4.86,8.36,8.36,0,0,1-1.11,4.29,8.16,8.16,0,0,1-3,3,10,10,0,0,1-3.6,1,41.22,41.22,0,0,1-4.25.42H181.41Zm9.56,12h4.13a4.73,4.73,0,0,0,3.08-.76,2.79,2.79,0,0,0,.87-2.21,2.62,2.62,0,0,0-.87-2.09,4.59,4.59,0,0,0-3-.76H191Zm0,12.06h4.84a5.31,5.31,0,0,0,3.45-.87,2.93,2.93,0,0,0,1-2.33,2.72,2.72,0,0,0-1-2.19,5.54,5.54,0,0,0-3.48-.83H191Z"/><path d="M215.11,14.1h9.5V44.78h-9.5Z"/><path d="M229.26,14.1h28.82v7.57h-9.67V44.78h-9.48V21.67h-9.67Z"/><path d="M281.33,32.22l8.31,2.51A15.11,15.11,0,0,1,287,40.57a11.34,11.34,0,0,1-4.47,3.54,16.65,16.65,0,0,1-6.79,1.2,19.74,19.74,0,0,1-8.18-1.46,12.94,12.94,0,0,1-5.47-5.11,17.3,17.3,0,0,1-2.3-9.37q0-7.62,4.05-11.71t11.46-4.09q5.79,0,9.11,2.35a13.73,13.73,0,0,1,4.93,7.2L281,25a7.14,7.14,0,0,0-.92-2.05,5.51,5.51,0,0,0-1.95-1.68,6,6,0,0,0-7.51,2c-.87,1.28-1.3,3.3-1.3,6,0,3.4.52,5.74,1.55,7a6.11,6.11,0,0,0,8.46.36A9.36,9.36,0,0,0,281.33,32.22Z"/><path d="M293.06,29.46q0-7.51,4.18-11.7t11.66-4.19q7.67,0,11.81,4.12t4.14,11.52A18.82,18.82,0,0,1,323,38a12.92,12.92,0,0,1-5.23,5.36,17.25,17.25,0,0,1-8.53,1.92,19.62,19.62,0,0,1-8.59-1.66,13,13,0,0,1-5.52-5.23A17.37,17.37,0,0,1,293.06,29.46Zm9.48,0c0,3.1.57,5.33,1.73,6.68a6.54,6.54,0,0,0,9.43,0q1.67-2,1.67-7.14,0-4.33-1.75-6.33a6,6,0,0,0-4.74-2,5.75,5.75,0,0,0-4.6,2Q302.54,24.82,302.54,29.5Z"/><path d="M330.34,14.1h9.5V44.78h-9.5Z"/><path d="M346.7,14.1h8.86l11.55,17v-17h8.94V44.78h-8.94L355.62,27.93V44.78H346.7Z"/><path d="M201.81,83.66l8.31,2.52A15.25,15.25,0,0,1,207.49,92,11.4,11.4,0,0,1,203,95.55a16.65,16.65,0,0,1-6.79,1.2,19.74,19.74,0,0,1-8.18-1.46,12.94,12.94,0,0,1-5.47-5.11,17.3,17.3,0,0,1-2.3-9.37c0-5.08,1.34-9,4.05-11.71S190.85,65,195.79,65c3.86,0,6.9.79,9.11,2.35a13.73,13.73,0,0,1,4.93,7.2l-8.37,1.86a7.14,7.14,0,0,0-.92-2,5.48,5.48,0,0,0-1.95-1.67,6,6,0,0,0-7.51,2q-1.31,1.93-1.3,6c0,3.41.51,5.74,1.55,7a6.11,6.11,0,0,0,8.46.36A9.32,9.32,0,0,0,201.81,83.66Z"/><path d="M213.54,80.9q0-7.52,4.18-11.7T229.38,65q7.67,0,11.81,4.12t4.14,11.52a18.82,18.82,0,0,1-1.81,8.82,12.87,12.87,0,0,1-5.23,5.36,17.25,17.25,0,0,1-8.53,1.92,19.48,19.48,0,0,1-8.59-1.66,12.89,12.89,0,0,1-5.52-5.23A17.37,17.37,0,0,1,213.54,80.9Zm9.48,0c0,3.1.57,5.33,1.73,6.68a6.54,6.54,0,0,0,9.43,0q1.66-2,1.67-7.13,0-4.34-1.75-6.34a6,6,0,0,0-4.74-2,5.73,5.73,0,0,0-4.6,2Q223,76.26,223,80.94Z"/><path d="M250.5,65.54h8.86l11.55,17v-17h8.94V96.22h-8.94L259.42,79.38V96.22H250.5Z"/><path d="M284.5,86.07l9-.56a6.86,6.86,0,0,0,1.19,3.35,5,5,0,0,0,4.19,1.86,4.68,4.68,0,0,0,3.13-1,2.86,2.86,0,0,0,1.09-2.21,2.81,2.81,0,0,0-1-2.14c-.7-.62-2.32-1.22-4.86-1.78q-6.24-1.4-8.89-3.72A7.48,7.48,0,0,1,285.65,74,8,8,0,0,1,287,69.53a9,9,0,0,1,4.12-3.31A19.31,19.31,0,0,1,298.69,65q5.88,0,9,2.19c2,1.46,3.28,3.78,3.67,7l-8.94.53a4.16,4.16,0,0,0-4.64-4,3.8,3.8,0,0,0-2.5.7,2.18,2.18,0,0,0-.83,1.71,1.71,1.71,0,0,0,.69,1.31,7.59,7.59,0,0,0,3.18,1.14,39.57,39.57,0,0,1,8.91,2.71,9.32,9.32,0,0,1,3.91,3.4,8.58,8.58,0,0,1,1.22,4.54,9.7,9.7,0,0,1-1.63,5.44,10.25,10.25,0,0,1-4.56,3.78,18.4,18.4,0,0,1-7.39,1.29q-7.83,0-10.84-3A11.85,11.85,0,0,1,284.5,86.07Z"/><path d="M337.08,65.54h9.46V83.82a15.57,15.57,0,0,1-.85,5.14A11.06,11.06,0,0,1,343,93.18a10.44,10.44,0,0,1-3.8,2.54,18.92,18.92,0,0,1-6.63,1,41.53,41.53,0,0,1-4.89-.32,12.83,12.83,0,0,1-4.43-1.24A11,11,0,0,1,320,92.54,9.57,9.57,0,0,1,318,89a18.17,18.17,0,0,1-.88-5.19V65.54h9.46V84.26A5.33,5.33,0,0,0,328,88.18a6,6,0,0,0,7.7,0,5.33,5.33,0,0,0,1.4-3.94Z"/><path d="M352.82,65.54h9.48V88.67h14.8v7.55H352.82Z"/><path d="M377.08,65.54H405.9v7.58h-9.67v23.1h-9.48V73.12h-9.67Z"/><path d="M426.15,91.16H415.38l-1.49,5.06H404.2l11.54-30.68h10.34l11.53,30.68h-9.93Zm-2-6.64-3.39-11-3.35,11Z"/><path d="M440.69,65.54h8.85l11.56,17v-17H470V96.22H461.1L449.61,79.38V96.22h-8.92Z"/><path d="M474.18,65.54H503v7.58h-9.67v23.1h-9.48V73.12h-9.67Z"/><path d="M505.64,86.07l9-.56a7,7,0,0,0,1.2,3.35A5,5,0,0,0,520,90.72a4.65,4.65,0,0,0,3.13-1,2.87,2.87,0,0,0,1.1-2.21,2.82,2.82,0,0,0-1-2.14c-.69-.62-2.31-1.22-4.85-1.78q-6.24-1.4-8.9-3.72A7.51,7.51,0,0,1,506.79,74a8.06,8.06,0,0,1,1.37-4.46,9.06,9.06,0,0,1,4.13-3.31A19.25,19.25,0,0,1,519.83,65q5.88,0,9,2.19c2.06,1.46,3.28,3.78,3.68,7l-8.94.53a4.18,4.18,0,0,0-4.65-4,3.79,3.79,0,0,0-2.49.7,2.16,2.16,0,0,0-.84,1.71,1.71,1.71,0,0,0,.69,1.31,7.72,7.72,0,0,0,3.19,1.14,39.28,39.28,0,0,1,8.9,2.71,9.35,9.35,0,0,1,3.92,3.4,8.67,8.67,0,0,1,1.22,4.54,9.7,9.7,0,0,1-1.63,5.44,10.23,10.23,0,0,1-4.57,3.78,18.35,18.35,0,0,1-7.38,1.29q-7.83,0-10.85-3A11.9,11.9,0,0,1,505.64,86.07Z"/><text class="cls-2" transform="translate(224.82 147.37)">WORLDWIDE</text></g></g></svg>