<svg version="1.2" xmlns="http://www.w3.org/2000/svg" viewBox="0 0 347 354" width="347" height="354">
	<title>Layer_2</title>
	<style>
		.s0 { fill: #bebfc1 } 
		.s1 { fill: #ffffff } 
	</style>
	<g id="Layer_2">
		<g id="-e-Layer_1-2">
			<path id="Layer" class="s0" d="m343.9 196c2.8 0.9 3.3 3.2 3 5.6-1.9 14.6-0.5 29.2-0.5 43.8 0 6.5-1.6 10.5-7.7 13.9-25.3 14.2-50.3 29-75.4 43.7q-35.5 20.6-71 41.4c-5.3 3-10.6 6-16 9-1.3 0.7-2.7 1.5-4.1 0.1 2.3-2 2.1-4.7 2.1-7.4 0.2-16.8-0.6-33.6 0.8-50.4 8.5-5 16.8-10 25.3-14.9q27.4-16 54.9-32 19.1-11.2 38.2-22.4 0.5 0 1 0 0.5 0 0.9-0.2 0.5-0.1 1-0.3 0.5-0.2 0.9-0.4 22-12.8 44-25.6 0.5-0.3 1-0.7 0.4-0.4 0.8-0.9 0.3-0.5 0.5-1.1 0.2-0.6 0.3-1.2z"/>
			<path id="Layer" class="s0" d="m2.4 157.5c-2.7-1.1-2.4-3.5-2.1-5.6 2-12.8 0.3-25.6 0.7-38.4 0.5-17-3.1-12.4 13.1-21.9q47.2-27.5 94.3-55 30.6-17.9 61.3-35.5 0.4-0.3 0.8-0.5 0.5-0.2 1-0.4 0.4-0.1 0.9-0.1 0.5-0.1 1 0c-0.3 3.4-0.8 6.9-0.8 10.3-0.2 16-0.2 32.1-0.3 48.2q-12.3 7.1-24.5 14.2c-21 12.2-41.8 24.5-62.9 36.4-10.3 5.9-20.2 12.6-31.2 17.4-11.8 6.8-23.6 13.4-35.2 20.4-5.5 3.2-11.8 5.3-16.1 10.5z"/>
			<path id="Layer" class="s0" d="m343.9 98c2.5 0.8 3.2 2.8 2.9 5.1-1.8 15.4-0.3 30.8-0.5 46.2 0 5.5-1.6 8.9-6.6 11.4-9 4.4-17 10.8-26.3 14.8q-27.1 14.6-53.2 30.9c-3.7 3.1-8.2 5.1-12.3 7.5q-35.6 20.8-71.3 41.6c-1.5 0.9-3 1.5-4.5 0.2 2.3-2 2.1-4.7 2.1-7.3 0.3-16.9-0.6-33.8 0.9-50.6l34.6-20.3q0.4 0 0.7 0 0.3 0 0.6-0.1 0.3-0.1 0.6-0.1 0.3-0.1 0.6-0.2 22.8-13.3 45.6-26.7 0.6-0.3 1.1-0.7 0.5-0.3 0.9-0.8 0.4-0.5 0.7-1 0.4-0.6 0.6-1.2c4.8-1 8.6-4.1 12.7-6.5 6.3-3.9 13.6-6.2 18.8-11.7q0.7 0 1.3 0 0.6 0 1.2-0.2 0.6-0.1 1.2-0.3 0.6-0.2 1.1-0.5 21.6-12.7 43.4-25.3 0.6-0.3 1.1-0.8 0.6-0.4 1-0.9 0.4-0.6 0.6-1.2 0.3-0.6 0.4-1.3z"/>
			<path id="Layer" class="s0" d="m1.8 253.6c-3.2-1.8-1.2-4.8-1-6.8 1-14.7 0-29.5 0.2-44.3 0-4.4 1.1-7.5 5.2-9.6 9.3-4.8 17.8-10.9 27.3-15.3q0.3-0.1 0.6-0.2 0.3-0.1 0.6-0.2 0.3-0.1 0.6-0.2 0.2-0.1 0.5-0.2 23-13.3 46-26.6 0.6-0.3 1.1-0.7 0.5-0.3 0.9-0.8 0.5-0.4 0.8-0.9 0.4-0.6 0.6-1.1c23.3-12.4 45.6-26.5 68.7-39.3 6.4-3.6 12.1-8.7 19.6-10.4-0.3 3.8-0.8 7.6-0.9 11.4-0.2 15.7-0.2 31.4-0.3 47.1l-35.3 20.1q-0.5 0.2-0.9 0.3-0.5 0.2-1 0.4-0.4 0.2-0.9 0.4-0.4 0.2-0.9 0.4-21.9 12.7-43.8 25.5-0.6 0.3-1.1 0.7-0.6 0.4-1.1 0.9-0.5 0.4-1 0.9-0.4 0.6-0.8 1.1c-2.3 1.3-4.6 2.6-7 3.8-8.3 4.4-15.9 10.2-24.8 13.6-1.1 0.6-2.4 1.1-3.5 1.8q-24.2 14.1-48.4 28.2z"/>
			<path id="Layer" class="s1" d="m343.9 98q-0.1 0.7-0.4 1.3-0.2 0.6-0.6 1.2-0.4 0.5-1 1-0.5 0.4-1.1 0.7-21.7 12.6-43.4 25.3-0.5 0.3-1.1 0.5-0.6 0.3-1.2 0.4-0.6 0.1-1.2 0.1-0.6 0.1-1.3 0c-0.5-1.8-2.1-2.4-3.6-3.3q-49.6-28.7-99.2-57.3c-5.7-3.3-11.1-7.3-17.5-9.4 0.1-16 0.1-32.1 0.3-48.1 0-3.5 0.5-6.9 0.8-10.4 13 7.4 26.1 14.6 39 22q64.8 37.3 129.4 74.7c0.7 0.4 1.4 0.9 2.1 1.3z"/>
			<path id="Layer" class="s1" d="m1.8 253.6q24.2-14.1 48.4-28.2c1.2-0.7 2.4-1.2 3.5-1.8-0.4 2.6 1.7 3 3.2 3.8 34 19.7 67.9 39.4 102 58.9 5.3 3 10 7.3 16.2 8.5-1.4 16.8-0.6 33.6-0.8 50.4 0 2.6 0.2 5.4-2.1 7.4l-116.1-66.9q-25.2-14.5-50.5-29.1-0.5-0.3-1-0.7-0.5-0.3-0.9-0.7-0.5-0.4-1-0.8-0.5-0.4-0.9-0.8z"/>
			<path id="Layer" class="s1" d="m85.2 146.7q-0.2 0.5-0.6 1.1-0.4 0.5-0.8 0.9-0.4 0.5-0.9 0.8-0.5 0.4-1.1 0.7-23 13.3-46 26.6-0.3 0.1-0.6 0.2-0.3 0.1-0.5 0.2-0.3 0.1-0.6 0.2-0.3 0.1-0.6 0.2c-0.1-2.8-2.6-3.2-4.3-4.3q-13.4-8-26.8-15.8c4.3-5.2 10.6-7.3 16.1-10.5 11.6-7 23.4-13.6 35.2-20.3-0.3 2.1 1.3 2.7 2.7 3.6q14.4 8.1 28.8 16.4z"/>
			<path id="Layer" class="s1" d="m260.2 206.4q26-16.3 53.2-30.8c0.2 2.4 2.3 3 4 3.9q13.2 7.8 26.5 15.5-0.1 0.6-0.3 1.2-0.2 0.6-0.6 1.1-0.3 0.5-0.8 0.9-0.4 0.5-1 0.7-22 12.8-44 25.6-0.4 0.3-0.9 0.5-0.4 0.2-0.9 0.3-0.5 0.1-1 0.1-0.5 0.1-1 0.1c-2.4-3.4-6.4-4.7-9.8-6.5-7.7-4.2-14.7-10-23.4-12.6z"/>
			<path id="Layer" class="s1" d="m173.4 97c12.2 6 23.7 13.3 35.5 20q26.1 14.8 52.2 29.7-0.2 0.6-0.6 1.2-0.3 0.5-0.7 1-0.4 0.5-0.9 0.8-0.5 0.4-1.1 0.7-22.8 13.4-45.6 26.7-0.3 0.1-0.6 0.2-0.3 0.1-0.6 0.1-0.3 0.1-0.6 0.1-0.3 0.1-0.7 0.1c-2.7-4.1-7.3-5.6-11.3-7.8-8.7-4.7-16.7-10.8-26.1-14.3 0.1-15.7 0.1-31.4 0.3-47.1 0.1-3.8 0.5-7.6 0.8-11.4z"/>
			<path id="Layer" class="s1" d="m172.1 255.7l-82.6-47.6c-1.3-0.7-2.7-1.3-4-1.9q0.4-0.5 0.8-1.1 0.5-0.5 1-0.9 0.5-0.5 1-0.9 0.6-0.4 1.2-0.7 21.9-12.7 43.8-25.5 0.5-0.2 0.9-0.4 0.5-0.2 0.9-0.4 0.5-0.2 1-0.4 0.4-0.1 0.9-0.3c0.7 1.9 2.4 2.6 4 3.5 7.3 4.2 14.6 8.5 21.9 12.6 4 2.2 7.5 5.3 12.2 6.1-1.4 16.9-0.6 33.8-0.8 50.6-0.1 2.7 0.1 5.4-2.2 7.3z"/>
		</g>
	</g>
</svg>