<svg version="1.2" xmlns="http://www.w3.org/2000/svg" viewBox="0 0 832 172" width="832" height="172">
	<title>-e- Foresite</title>
	<style>
		.s0 { fill: #ffffff } 
		.s1 { fill: #22d3ee } 
		.s2 { fill: #4ade80 } 
	</style>
	<path id="-e- Foresite. copy" class="s0" aria-label="Foresite."  d="m37.3 25.5v83.7h-36.3v-66.2q0-9.1 5.3-14.2 5.3-5.2 14.2-5.2 5 0 9.6 0.7 4.8 0.7 7.2 1.2zm45.8 89.3h-63.1v-29.3h72.2q1.5 2.4 2.7 6.2 1.2 3.6 1.2 7.9 0 7.7-3.6 11.6-3.4 3.6-9.4 3.6zm8.2-62h-70.8v-29.2h79.9q1.4 2.1 2.6 6 1.2 3.8 1.2 8.1 0 7.7-3.6 11.5-3.3 3.6-9.3 3.6zm-90.3 100.8v-58.5h36.5v73.7q-2.1 0.7-6.9 1.4-4.8 0.5-9.9 0.5-10.8 0-15.3-3.9-4.4-3.8-4.4-13.2zm223.7-42.2q0 18.7-7.7 32.6-7.4 13.7-21.1 21.2-13.7 7.4-32.1 7.4-18.3 0-32.2-7.2-13.7-7.4-21.4-21.1-7.4-13.9-7.4-32.9 0-19 7.7-32.4 7.7-13.7 21.3-21.1 14-7.7 32-7.7 18.2 0 31.9 7.7 13.7 7.4 21.3 21.3 7.7 13.7 7.7 32.2zm-60.9-33.1q-11.3 0-18 8.6-6.5 8.7-6.5 24.5 0 16.1 6.5 24.7 6.4 8.4 18 8.4 11.5 0 18-8.6 6.4-8.7 6.4-24.5 0-15.6-6.4-24.2-6.5-8.9-18-8.9zm108.2 6.5v30h-35.5v-34.4q0-6.7 3.1-11.2 3.4-4.8 9.1-8.4 7.9-4.8 19-7.5 11.3-2.9 23.5-2.9 24.5 0 24.5 16.4 0 3.8-1.2 7.2-1 3.3-2.4 5.7-2.4-0.5-6-0.7-3.4-0.5-7.5-0.5-7.2 0-14.4 1.7-7.2 1.7-12.2 4.6zm-35.5 69.3v-48.5l35.5 0.8v62.4q-2.4 0.7-6.7 1.4-4.3 0.5-9.4 0.5-10.1 0-14.9-3.6-4.5-3.6-4.5-13zm175.2-37.2l-76.3 11.3-1.5-24 59.5-9.4q-0.4-6.7-5.7-12.4-5.3-5.8-15.6-5.8-10.8 0-18 7.4-7.2 7.2-7.7 20.7l1.2 16.5q2.2 13.2 11.3 19 9.1 5.5 21.6 5.5 10.1 0 18.9-2.9 8.9-2.8 14.4-6 3.6 2.2 5.8 6 2.4 3.9 2.4 8.2 0 7.2-5.8 12-5.5 4.8-15.6 7.2-9.8 2.4-22.5 2.4-18.5 0-33.4-7-14.6-6.9-23-20.8-8.4-14-8.4-34.8 0-15.4 4.8-26.7 5-11.3 13.2-18.5 8.4-7.4 18.7-11 10.6-3.6 21.8-3.6 16.6 0 28.8 6.7 12.5 6.5 19.5 17.8 6.9 11.3 6.9 26.1 0 7.5-4 11.3-4.1 3.9-11.3 4.8zm120.2 18.5q0 17.5-13.2 27.6-13.2 9.8-38.4 9.8-19.7 0-32.4-5.7-12.7-5.8-12.7-17.1 0-5 2.2-8.6 2.1-3.8 5.5-6 6.7 3.8 15.6 7.2 9.1 3.1 20.6 3.1 17.5 0 17.5-10.1 0-4.3-3.1-6.7-3.1-2.6-10.3-3.8l-10.1-2.4q-19.2-4.1-28.8-12.5-9.3-8.6-9.3-23.5 0-16.8 13.4-26.7 13.7-10 36.7-10 11.5 0 20.9 2.4 9.6 2.1 15.1 6.9 5.5 4.6 5.5 11.5 0 4.8-1.9 8.4-1.9 3.6-5 6-2.7-1.6-8.2-3.6-5.3-1.9-11.7-3.1-6.3-1.2-11.8-1.2-8.6 0-13.4 2.4-4.8 2.2-4.8 7 0 3.1 2.6 5.5 2.9 2.2 9.8 3.6l9.6 2.4q21.4 4.8 30.8 13.9 9.3 8.9 9.3 23.3zm66.5-1.7v-28.1h35.3v25.7q0 6.7 4.3 9.9 4.3 3.1 12.2 3.1 3.6 0 7.7-0.7 4.3-1 7.2-2.2 1.9 2.2 3.4 5.3 1.7 3.1 1.7 7.2 0 8.1-6.8 13.4-6.7 5.3-22.5 5.3-20.2 0-31.5-9.1-11-9.1-11-29.8zm60.2-49.9h-37.6v-27.4h46q1.2 2 2.4 5.6 1.2 3.6 1.2 7.9 0 7.2-3.3 10.5-3.1 3.4-8.7 3.4zm-24.9-43.9v71.7h-35.3v-86.1q2.4-0.7 6.7-1.5 4.3-0.9 9.1-0.9 10.4 0 14.9 3.6 4.6 3.6 4.6 13.2zm138.9 77l-76.3 11.3-1.4-24 59.5-9.4q-0.5-6.7-5.8-12.4-5.2-5.8-15.6-5.8-10.8 0-18 7.4-7.2 7.2-7.6 20.7l1.2 16.5q2.1 13.2 11.2 19 9.2 5.5 21.6 5.5 10.1 0 19-2.9 8.9-2.8 14.4-6 3.6 2.2 5.8 6 2.4 3.9 2.4 8.2 0 7.2-5.8 12-5.5 4.8-15.6 7.2-9.8 2.4-22.6 2.4-18.4 0-33.3-7-14.7-6.9-23.1-20.8-8.4-14-8.4-34.8 0-15.4 4.8-26.7 5.1-11.3 13.2-18.5 8.4-7.4 18.8-11 10.5-3.6 21.8-3.6 16.6 0 28.8 6.7 12.5 6.5 19.4 17.8 7 11.3 7 26.1 0 7.5-4.1 11.3-4.1 3.9-11.3 4.8z"/>
	<path id="-e- Foresite. copy" class="s1" aria-label="Foresite."  d="m542.2 20.7q0-8.2 5.6-13.7 5.7-5.5 14.4-5.5 8.8 0 14.4 5.5 5.5 5.5 5.5 13.7 0 7.9-5.5 13.7-5.6 5.7-14.4 5.7-8.7 0-14.4-5.7-5.6-5.8-5.6-13.7zm2.2 133.4v-48.5h35.5v63.2q-2.1 0.7-6.5 1.4-4.3 0.5-9.3 0.5-10.3 0-15.1-3.6-4.6-3.6-4.6-13zm35.5-84.2v54.2h-35.5v-68.9q2.2-0.7 6.5-1.4 4.5-0.7 9.6-0.7 10.3 0 14.9 3.6 4.5 3.3 4.5 13.2z"/>
	<path id="-e- Foresite. copy" class="s2" aria-label="Foresite."  d="m790.4 151.7q0-8.9 5.5-14.9 5.8-6.2 15.1-6.2 9.6 0 15.2 6.2 5.7 6 5.7 14.9 0 8.9-5.7 15.1-5.6 6-15.2 6-9.3 0-15.1-6-5.5-6.2-5.5-15.1z"/>
</svg>