<svg version="1.2" xmlns="http://www.w3.org/2000/svg" viewBox="0 0 313 314" width="313" height="314">
	<title>Layer_2</title>
	<style>
		.s0 { fill: #ffffff } 
	</style>
	<g id="Layer_2">
		<g id="-e-Layer_1-2">
			<path id="Layer" fill-rule="evenodd" class="s0" d="m156.7 0c20.6 0 41 4.2 60 12.1 19 7.9 36.3 19.5 50.8 34.1 14.5 14.7 26 32 33.8 51 7.8 19.1 11.8 39.5 11.7 60.1-0.3 86.3-70.6 156.2-156.8 155.9-87.2-0.2-156.5-70.5-156.2-158.6 0.3-85 71.1-154.9 156.7-154.6zm16.5 185q0-32.2 0-64.5c0-6.8-0.3-13.6-2.7-20-4.4-11.8-13.7-17-28.5-16.1-12 0.7-19.7 7.4-22.5 19.2-1.7 7.5-1.7 15.2-1.8 22.8 0 1.9-0.2 3.3-2.7 3.4-2.6 0.1-6.6-1.4-7.6 0.9-0.9 2 1.2 5.4 2 8.1 0.2 0.6 0.4 1.1 0.6 1.7 0.3 1.7 1.4 2.5 3.1 2.2 4.1-0.7 4.6 1.4 4.6 4.9-0.1 36.7 0 73.4-0.2 110 0 4 1.1 5.1 5 5 8.2-0.2 8.2 0 8.2-8.2v-106.2c0-5.5 0-5.5 5.7-5.5 6 0 12.1 0.2 18.2-0.1 4.1-0.3 5.3 0.9 5.3 5.2-0.2 35.2-0.1 70.4-0.1 105.6 0 9.1 0 9 9.1 9.1 3.4 0.1 4.4-0.9 4.3-4.3-0.1-24.4 0-48.8 0-73.2zm55-51.5l-0.9 0.3q-5.2-19-10.4-38c-2.5-9.2-2.5-9.1-12.1-9.2-3.9-0.1-4.1 1.1-3.1 4.4 6 19.5 11.8 39 17.7 58.4q0.3 0.9 0.4 1.8 0.2 0.9 0.2 1.8 0 0.9-0.1 1.8-0.2 0.9-0.4 1.8-14.6 48.7-28.9 97.5c-2.5 8.4-2.5 8.1 6.3 8.5 4.2 0.1 5.9-1.2 7-5.3 7.4-27.7 15.1-55.4 22.8-83 0.4-1.3 0.3-2.9 1.8-4 0.4 1.3 0.8 2.5 1.1 3.7q10.5 39.7 20.9 79.5c2.4 9.1 2.3 8.9 11.7 9.1 3.8 0.1 4.6-0.6 3.5-4.5-9.9-34.7-19.5-69.5-29.3-104.2q-0.3-1-0.4-2-0.2-1.1-0.2-2.2 0-1 0.2-2.1 0.2-1.1 0.5-2.1 7.9-26.1 15.5-52.2c2.2-7.3 2.9-6.6-5-6.5-8.5 0-6.7-1.3-8.8 7-3.4 13.1-6.7 26.4-10 39.7zm-134.7 25.5c0-25.2-0.1-46.4 0-67.6 0-3.9-1-5-4.8-4.8-8.3 0.2-16.5 0-24.7 0-9.9 0-9.8 0-9.4 10.1 0.1 2.5 1 3.2 3.3 3.2 6.1-0.1 12.2 0.2 18.2-0.1 3.8-0.2 4.5 1.1 4.5 4.6-0.1 33.8 0 67.6-0.1 101.4 0 4.6-0.4 9.2-0.8 13.8-1.3 12.5-6.6 22.7-18.9 27.2-6.1 2.2-8 5.4-7 11.3q0 0 0 0.1 0 0.1 0 0.1 0 0.1 0 0.1 0 0.1 0 0.1c-0.6 3.8 1.2 3.9 4.3 3.2 21-5.3 33.2-20 34.8-42.6 1.4-21.4 0.1-42.8 0.6-60.1zm40.3-116.7l0.8 0.2q0 2.3 0 4.6c0 9.5-1.3 19-0.5 28.6 0.2 2.6 1.2 3.5 3.7 3.5 2.9 0.1 2.7-1.7 2.8-3.7q0.4-26.8 1-53.7c0-1.8 0.6-4-2.2-4.3-2.6-0.4-3.9 0.8-4.7 3.3q-1 3-2.1 6-1.1 3-2.2 6-1.2 3-2.4 5.9-1.3 3-2.6 5.9c-0.4 0.9-0.3 2.3-1.9 2.4q-0.8-1.1-1.4-2.3-0.6-1.2-1.2-2.4-0.5-1.3-1-2.5-0.4-1.3-0.7-2.7c-1.5-6-4.8-11.4-6.2-17.4-0.5-2.1-1.8-2.8-3.8-2.7-2.2 0.1-2.4 1.6-2.4 3.3q-0.5 27.3-1 54.5c-0.1 3.3 1.3 4.3 4.5 4 3.2-0.2 2.8-2.2 2.8-4.2 0.2-10.2-0.3-20.4 0.5-31 1.8 1.8 2 3.7 2.6 5.4 1.9 5.2 3.6 10.4 5.4 15.5 0.3 0.9 0.5 2.2 1.7 2.4 1.6 0.1 1.5-1.5 2-2.4 2.8-7.4 5.7-14.8 8.5-22.2zm82.4 33.4c-0.7-3.1-1.4-6.2-2-9.3-2.7-15-5.3-30.1-8.1-45.1-0.3-1.7 0.3-4.5-2.8-4.5-2.9-0.1-2.2 2.6-2.6 4.1-1.4 4.9-2.5 9.8-3.6 14.7q-4.4 19.4-8.7 38.8c-0.4 1.7-1.2 3.9 1.7 4.4 2.6 0.4 3.7-1.1 4.1-3.3 0.3-1.7 0.5-3.5 0.8-5.2 0.1-1.1 0.2-2.4 1.6-2.7q1.3-0.3 2.7-0.5 1.3-0.1 2.7 0 1.3 0 2.7 0.2 1.3 0.3 2.6 0.7c2.9 0.9 1.4 4 2.3 6 0.4 0.9 0.4 2 0.7 2.9 0.8 2 2.6 1.4 4.1 1.3 1.6 0 1.8-1.2 1.8-2.5zm-71.3-27.6h-0.9v16.9c0 15.3 0 15.3 15.4 14 1.6-0.2 2.7-0.4 2.7-2.4 0-1.8 0.1-3.5-2.3-4q-0.4 0-0.8 0-0.4 0-0.9 0-0.4 0.1-0.8 0.2-0.4 0.1-0.8 0.2c-4.7 0.9-5.5 0.2-5.5-4.6 0-4.8 0.2-9.5-0.1-14.3-0.3-4.2 1.8-5.3 5.3-5.2 1 0 2 0.1 3 0.1 1.7 0.1 3.9 0.7 3.6-2.2-0.3-2-0.2-4.1-3.6-4.2-7.7-0.1-7.7-0.3-7.6-8.1q0-1.1 0-2.1c0.2-8.6 0.2-8.6 8.8-9.1 1.8-0.2 3-0.4 3-2.6 0-2.3-1.4-2.6-3-2.7-3.8-0.3-7.5-0.3-11.2-0.9-3.3-0.5-4.5 0.4-4.4 3.8 0.2 9.1 0.1 18.1 0.1 27.2zm26.4 2.6q0 11.7 0 23.4c0 2.7 0.1 5.1 4 5.3 4.1 0.1 3.3-2.6 3.3-5 0-15.3 0.2-30.6 0-45.9 0-3.4 0.7-5.4 4.2-5.3 2.8 0 2.8-1.6 2.9-3.7 0-2.6-1.6-2.7-3.4-2.6-4.6 0.2-9.2 0.4-13.8 0.5-1.6 0-3.4-0.6-3.2 2 0.2 1.9-0.5 4.5 2.8 4.2 2.9-0.3 3.3 1.2 3.3 3.6-0.1 7.9-0.1 15.7-0.1 23.5z"/>
			<path id="Layer" class="s0" d="m145.3 129.7c-3.8 0-7.5-0.1-11.3 0-2.3 0.1-3.4-0.7-3.3-3.2 0.2-5-0.1-10.1 0.3-15.1 0.7-9.8 8.4-15.5 18.1-13.8 5.4 1 9.2 4.7 10.2 10.8 1.1 6.2 0.4 12.7 0.5 19 0 2.1-1.3 2.3-2.9 2.3q-5.8 0-11.6 0z"/>
			<path id="Layer" class="s0" d="m203 39.6c1.1 6 2.2 12 3.2 18.1 0.2 1 0.7 2.7-0.7 3q-0.8 0.2-1.7 0.3-1 0.1-1.9 0-0.9 0-1.8-0.2-0.9-0.2-1.7-0.5c-1.3-0.5-0.2-2.1 0-3.1 1.2-5.9 2.4-11.8 3.7-17.7z"/>
		</g>
	</g>
</svg>