<svg version="1.2" xmlns="http://www.w3.org/2000/svg" viewBox="0 0 534 162" width="534" height="162">
	<title>Layer_2</title>
	<style>
		tspan { white-space:pre } 
		.s0 { fill: #ffffff } 
		.t1 { font-size: 39px;fill: #ffffff;font-weight: 800;font-family: "Arial" } 
		.t2 { font-size: 39px;fill: #ffffff;font-family: "Arial" } 
	</style>
	<g id="Layer_2">
		<g id="-e-Layer_1-2">
			<path id="Layer" fill-rule="evenodd" class="s0" d="m141.4 90.7l-70.7 70.7-70.7-70.7 70.7-70.7zm-140 0l69.3 69.3 69.3-69.3-69.3-69.3z"/>
			<path id="Layer" fill-rule="evenodd" class="s0" d="m141.4 80.7l-70.7 70.7-70.7-70.7 70.7-70.7zm-140 0l69.3 69.3 69.3-69.3-69.3-69.3z"/>
			<path id="Layer" fill-rule="evenodd" class="s0" d="m141.4 70.7l-70.7 70.7-70.7-70.7 70.7-70.7zm-140 0l69.3 69.3 69.3-69.3-69.3-69.3z"/>
			<text id="BC" style="transform: matrix(1,0,0,1,41.24,92.59)" >
				<tspan x="0" y="0" class="t1">BC
</tspan>
			</text>
			<path id="Layer" fill-rule="evenodd" class="s0" d="m181.4 14.1h17.8q4.4 0 6.8 2.2 0.5 0.5 1 1.1 0.4 0.7 0.8 1.4 0.3 0.7 0.4 1.4 0.2 0.8 0.1 1.5 0.1 0.7 0 1.3-0.1 0.6-0.4 1.2-0.2 0.6-0.5 1.2-0.3 0.5-0.8 1-0.3 0.4-0.7 0.7-0.4 0.3-0.8 0.5-0.4 0.3-0.8 0.5-0.5 0.2-1 0.4 0.7 0.1 1.4 0.3 0.7 0.3 1.3 0.6 0.6 0.4 1.2 0.8 0.5 0.5 1 1 0.4 0.5 0.7 1.1 0.3 0.6 0.5 1.2 0.2 0.6 0.3 1.3 0.1 0.6 0.1 1.2 0 0.6-0.1 1.2-0.1 0.5-0.2 1.1-0.1 0.5-0.3 1-0.3 0.6-0.5 1-0.3 0.5-0.6 0.9-0.4 0.5-0.7 0.8-0.4 0.4-0.8 0.7-0.5 0.4-0.9 0.6-0.5 0.2-0.9 0.4-0.4 0.2-0.9 0.3-0.4 0.1-0.9 0.2-0.5 0.1-0.9 0.1-0.6 0.1-1.1 0.2-0.5 0.1-1.1 0.1-0.5 0.1-1 0.1-0.6 0-1.1 0.1h-16.4zm9.6 12h4.1q0.4 0 0.8 0 0.4-0.1 0.8-0.2 0.4-0.1 0.8-0.2 0.3-0.2 0.7-0.4 0.2-0.2 0.4-0.5 0.1-0.2 0.3-0.5 0.1-0.3 0.1-0.6 0.1-0.3 0-0.6 0.1-0.3 0-0.6 0-0.3-0.1-0.6-0.2-0.2-0.3-0.5-0.2-0.2-0.4-0.4-0.3-0.2-0.7-0.4-0.4-0.1-0.8-0.2-0.3-0.1-0.7-0.2-0.4 0-0.8 0h-4.2zm0 12.1h4.8q0.5 0 0.9 0 0.5 0 0.9-0.1 0.5-0.1 0.9-0.3 0.4-0.2 0.8-0.5 0.2-0.2 0.4-0.5 0.2-0.2 0.4-0.5 0.1-0.3 0.1-0.6 0.1-0.4 0.1-0.7 0-0.3-0.1-0.6 0-0.3-0.2-0.6-0.1-0.3-0.3-0.5-0.2-0.3-0.4-0.5-0.4-0.2-0.8-0.4-0.4-0.2-0.9-0.3-0.4-0.1-0.9-0.1-0.4-0.1-0.9 0h-4.8z"/>
			<path id="Layer" class="s0" d="m215.1 14.1h9.5v30.7h-9.5z"/>
			<path id="Layer" class="s0" d="m229.3 14.1h28.8v7.6h-9.7v23.1h-9.5v-23.1h-9.6z"/>
			<path id="Layer" class="s0" d="m281.3 32.2l8.3 2.5q-0.1 0.8-0.4 1.6-0.2 0.8-0.6 1.5-0.3 0.7-0.7 1.4-0.4 0.7-0.9 1.4-0.4 0.5-0.9 1.1-0.5 0.5-1.1 0.9-0.6 0.5-1.2 0.8-0.6 0.4-1.3 0.7-0.8 0.3-1.6 0.6-0.8 0.2-1.7 0.4-0.9 0.1-1.7 0.2-0.9 0-1.8 0-1 0-2.1 0-1-0.1-2-0.3-1.1-0.2-2.1-0.5-1-0.3-1.9-0.7-0.9-0.4-1.7-0.9-0.8-0.6-1.5-1.2-0.6-0.7-1.2-1.4-0.6-0.7-1.1-1.6-0.6-1-1.1-2.2-0.4-1.1-0.7-2.3-0.3-1.2-0.4-2.4-0.2-1.2-0.1-2.4 0-7.7 4-11.7 4.1-4.1 11.5-4.1 5.8 0 9.1 2.3 0.9 0.7 1.7 1.5 0.7 0.8 1.4 1.7 0.6 0.9 1.1 1.9 0.4 1.1 0.7 2.1l-8.3 1.9q-0.1-0.3-0.2-0.5-0.1-0.3-0.2-0.6-0.1-0.2-0.2-0.5-0.2-0.2-0.3-0.5-0.2-0.2-0.4-0.5-0.2-0.2-0.5-0.4-0.2-0.2-0.5-0.4-0.3-0.2-0.6-0.3-0.9-0.5-2-0.6-1.1-0.1-2.1 0.2-1 0.3-1.9 0.9-0.9 0.6-1.5 1.5-1.3 1.9-1.3 6 0 5.1 1.6 7 0.8 0.8 1.9 1.3 1 0.5 2.2 0.6 1.2 0 2.3-0.4 1.1-0.4 2-1.2 0.4-0.4 0.7-1 0.4-0.5 0.6-1 0.3-0.6 0.5-1.2 0.1-0.6 0.2-1.2z"/>
			<path id="Layer" fill-rule="evenodd" class="s0" d="m293.1 29.5q0-7.5 4.1-11.7 4.2-4.2 11.7-4.2 7.7 0 11.8 4.1 4.2 4.1 4.1 11.5 0.1 1.1 0 2.3-0.1 1.1-0.3 2.2-0.3 1.1-0.6 2.2-0.4 1.1-0.9 2.1-0.4 0.8-1 1.6-0.6 0.8-1.2 1.5-0.7 0.6-1.4 1.2-0.8 0.6-1.6 1.1-1 0.5-2.1 0.8-1 0.4-2.1 0.7-1.1 0.2-2.2 0.3-1.1 0.1-2.2 0.1-1.1 0-2.2-0.1-1.1-0.1-2.1-0.3-1.1-0.2-2.2-0.5-1-0.3-2.1-0.8-0.8-0.4-1.6-1-0.8-0.5-1.5-1.2-0.7-0.6-1.3-1.4-0.6-0.8-1.1-1.6-0.5-1-0.9-2.1-0.4-1.1-0.7-2.2-0.3-1.2-0.4-2.3-0.1-1.2 0-2.3zm9.4 0q0 0 0 0 0 0 0 0zm1.8 6.6q0.9 1 2.1 1.5 1.3 0.5 2.6 0.5 1.3 0 2.5-0.5 1.3-0.5 2.2-1.5 1.7-2 1.7-7.1 0-4.4-1.8-6.4-0.4-0.5-1-0.9-0.5-0.3-1.1-0.6-0.6-0.3-1.3-0.4-0.7-0.1-1.3-0.1-0.7 0-1.3 0.1-0.7 0.1-1.2 0.4-0.6 0.3-1.2 0.6-0.5 0.4-0.9 0.9-1.8 2.2-1.8 6.8 0 4.7 1.8 6.7z"/>
			<path id="Layer" class="s0" d="m330.3 14.1h9.5v30.7h-9.5z"/>
			<path id="Layer" class="s0" d="m346.7 14.1h8.9l11.5 17v-17h8.9v30.7h-8.9l-11.5-16.9v16.9h-8.9z"/>
			<path id="Layer" class="s0" d="m201.8 83.7l8.3 2.5q-0.2 0.8-0.4 1.5-0.3 0.8-0.6 1.5-0.3 0.8-0.7 1.5-0.4 0.7-0.9 1.3-0.4 0.6-1 1.1-0.5 0.5-1 1-0.6 0.4-1.2 0.8-0.6 0.4-1.3 0.6-0.8 0.4-1.6 0.6-0.9 0.3-1.7 0.4-0.9 0.2-1.8 0.2-0.8 0.1-1.7 0-1 0.1-2.1 0-1-0.1-2.1-0.2-1-0.2-2-0.5-1-0.3-2-0.7-0.8-0.4-1.6-1-0.8-0.5-1.5-1.2-0.7-0.6-1.3-1.4-0.6-0.7-1-1.5-0.7-1.1-1.1-2.2-0.5-1.2-0.8-2.3-0.2-1.2-0.4-2.4-0.1-1.3 0-2.5 0-7.6 4-11.7c2.7-2.7 6.5-4.1 11.5-4.1q5.8 0 9.1 2.3 0.9 0.7 1.7 1.5 0.7 0.8 1.4 1.7 0.6 1 1.1 2 0.4 1 0.7 2l-8.3 1.9q-0.1-0.3-0.2-0.5-0.1-0.3-0.2-0.5-0.1-0.3-0.3-0.5-0.1-0.3-0.3-0.5-0.2-0.3-0.4-0.5-0.2-0.2-0.4-0.4-0.3-0.3-0.6-0.4-0.2-0.2-0.5-0.4-1-0.4-2-0.5-1.1-0.1-2.1 0.2-1.1 0.2-1.9 0.8-0.9 0.7-1.5 1.5-1.3 2-1.3 6 0 5.2 1.5 7 0.8 0.9 1.9 1.4 1.1 0.5 2.3 0.5 1.2 0.1 2.3-0.3 1.1-0.4 2-1.2 0.4-0.5 0.7-1 0.3-0.5 0.6-1.1 0.3-0.5 0.4-1.1 0.2-0.6 0.3-1.2z"/>
			<path id="Layer" fill-rule="evenodd" class="s0" d="m213.5 80.9q0-7.5 4.2-11.7 4.2-4.2 11.7-4.2 7.6 0 11.8 4.1 4.1 4.1 4.1 11.5 0.1 1.2 0 2.3-0.1 1.1-0.3 2.3-0.3 1.1-0.6 2.2-0.4 1-0.9 2.1-0.4 0.8-1 1.6-0.5 0.7-1.2 1.4-0.7 0.7-1.4 1.3-0.8 0.6-1.6 1-1 0.5-2 0.9-1.1 0.4-2.2 0.6-1 0.3-2.1 0.4-1.1 0.1-2.2 0-1.1 0.1-2.2 0-1.1-0.1-2.2-0.3-1.1-0.2-2.2-0.5-1-0.4-2-0.8-0.9-0.4-1.7-1-0.8-0.6-1.5-1.2-0.7-0.7-1.3-1.4-0.6-0.8-1.1-1.7-0.5-1-0.9-2.1-0.4-1-0.7-2.2-0.3-1.1-0.4-2.3-0.1-1.1-0.1-2.3zm9.5 0q0 4.7 1.7 6.7 1 0.9 2.2 1.5 1.2 0.5 2.6 0.5 1.3 0 2.5-0.5 1.3-0.6 2.2-1.5 1.6-2 1.6-7.2 0-4.3-1.7-6.3-0.4-0.5-1-0.9-0.5-0.4-1.1-0.6-0.7-0.3-1.3-0.4-0.7-0.1-1.3-0.1-0.7 0-1.3 0.1-0.7 0.1-1.3 0.4-0.6 0.2-1.1 0.6-0.5 0.4-0.9 0.9-1.8 2.2-1.8 6.8z"/>
			<path id="Layer" class="s0" d="m250.5 65.5h8.9l11.5 17v-17h8.9v30.7h-8.9l-11.5-16.8v16.8h-8.9z"/>
			<path id="Layer" class="s0" d="m284.5 86.1l9-0.6q0 0.5 0.1 0.9 0.1 0.4 0.3 0.9 0.1 0.4 0.3 0.8 0.2 0.4 0.5 0.8 0.4 0.4 0.8 0.8 0.5 0.4 1.1 0.6 0.5 0.2 1.1 0.3 0.6 0.2 1.2 0.1 0.4 0 0.8 0 0.4-0.1 0.8-0.2 0.4-0.1 0.8-0.3 0.4-0.2 0.7-0.5 0.3-0.2 0.5-0.4 0.2-0.3 0.3-0.6 0.1-0.2 0.2-0.6 0.1-0.3 0.1-0.6 0-0.3-0.1-0.6 0-0.3-0.2-0.6-0.1-0.2-0.3-0.5-0.2-0.2-0.4-0.4-1.1-1-4.9-1.8-6.2-1.4-8.9-3.7-0.6-0.6-1.1-1.2-0.5-0.7-0.9-1.5-0.3-0.7-0.5-1.5-0.2-0.9-0.2-1.7 0-0.6 0.1-1.2 0.1-0.6 0.3-1.1 0.2-0.6 0.4-1.1 0.3-0.6 0.6-1.1 0.4-0.5 0.8-1 0.5-0.5 1-0.9 0.5-0.5 1.1-0.8 0.6-0.3 1.2-0.6 0.9-0.3 1.9-0.6 0.9-0.2 1.8-0.4 1-0.1 2-0.2 0.9 0 1.9 0 5.9 0 9 2.2c2 1.4 3.3 3.8 3.7 7l-9 0.5q0-0.9-0.4-1.6-0.4-0.8-1-1.4-0.7-0.6-1.5-0.8-0.9-0.3-1.7-0.2-0.4 0-0.7 0-0.3 0.1-0.6 0.1-0.4 0.1-0.7 0.3-0.3 0.1-0.5 0.3-0.2 0.2-0.4 0.4-0.1 0.2-0.2 0.4-0.1 0.2-0.2 0.4 0 0.3-0.1 0.5 0.1 0.2 0.1 0.4 0.1 0.2 0.1 0.4 0.1 0.1 0.3 0.3 0.1 0.1 0.2 0.2 0.4 0.3 0.8 0.5 0.4 0.1 0.8 0.3 0.4 0.1 0.8 0.2 0.4 0.1 0.8 0.2 1.2 0.2 2.3 0.5 1.1 0.2 2.3 0.6 1.1 0.3 2.2 0.7 1.1 0.4 2.1 0.9 0.6 0.3 1.2 0.6 0.5 0.4 1 0.8 0.5 0.4 1 0.9 0.4 0.5 0.7 1.1 0.3 0.5 0.6 1.1 0.2 0.5 0.4 1.1 0.1 0.6 0.2 1.1 0.1 0.6 0.1 1.2 0 0.8-0.1 1.5-0.1 0.7-0.3 1.4-0.3 0.7-0.6 1.3-0.3 0.7-0.7 1.3-0.4 0.6-0.9 1.2-0.5 0.5-1.1 1-0.6 0.5-1.2 0.9-0.6 0.4-1.3 0.6-0.9 0.4-1.8 0.7-0.9 0.2-1.9 0.4-0.9 0.1-1.8 0.2-1 0.1-1.9 0-7.9 0-10.9-3-0.7-0.7-1.3-1.6-0.6-0.9-1.1-1.9-0.4-1-0.7-2-0.2-1.1-0.3-2.1z"/>
			<path id="Layer" class="s0" d="m337.1 65.5h9.4v18.3q0 0.7 0 1.3-0.1 0.7-0.2 1.3-0.1 0.7-0.2 1.3-0.2 0.6-0.4 1.3-0.2 0.6-0.5 1.1-0.3 0.6-0.6 1.1-0.4 0.6-0.8 1-0.3 0.5-0.8 1-0.4 0.4-0.8 0.8-0.5 0.3-1 0.7-0.4 0.3-1 0.5-0.5 0.3-1 0.5-0.8 0.3-1.6 0.5-0.8 0.2-1.7 0.3-0.8 0.1-1.6 0.2-0.9 0-1.7 0-0.6 0-1.3 0-0.6 0-1.2-0.1-0.6 0-1.2-0.1-0.6 0-1.2-0.1-0.6-0.1-1.2-0.2-0.5-0.1-1.1-0.2-0.5-0.2-1.1-0.4-0.5-0.2-1.1-0.4-0.4-0.3-0.9-0.6-0.4-0.3-0.8-0.6-0.4-0.3-0.8-0.7-0.4-0.4-0.7-0.8-0.3-0.3-0.6-0.8-0.3-0.4-0.6-0.8-0.2-0.5-0.4-0.9-0.2-0.5-0.4-1-0.2-0.6-0.4-1.3-0.1-0.6-0.2-1.3-0.1-0.6-0.2-1.3-0.1-0.6-0.1-1.3v-18.3h9.5v18.8q0 0.5 0 1 0.1 0.6 0.3 1.1 0.2 0.5 0.5 0.9 0.2 0.5 0.6 0.9 0.8 0.7 1.8 1 1 0.4 2 0.4 1.1 0 2.1-0.4 1-0.3 1.8-1 0.4-0.4 0.6-0.9 0.3-0.4 0.5-0.9 0.2-0.6 0.3-1.1 0-0.5 0-1.1z"/>
			<path id="Layer" class="s0" d="m352.8 65.5h9.5v23.2h14.8v7.5h-24.3z"/>
			<path id="Layer" class="s0" d="m377.1 65.5h28.8v7.6h-9.7v23.1h-9.5v-23.1h-9.6z"/>
			<path id="Layer" fill-rule="evenodd" class="s0" d="m426.1 91.2h-10.7l-1.5 5h-9.7l11.5-30.7h10.4l11.5 30.7h-9.9zm-2-6.6l-3.4-11-3.4 11z"/>
			<path id="Layer" class="s0" d="m440.7 65.5h8.8l11.6 17v-17h8.9v30.7h-8.9l-11.5-16.8v16.8h-8.9z"/>
			<path id="Layer" class="s0" d="m474.2 65.5h28.8v7.6h-9.7v23.1h-9.5v-23.1h-9.6z"/>
			<path id="Layer" class="s0" d="m505.6 86.1l9-0.6q0.1 0.5 0.2 0.9 0.1 0.4 0.2 0.9 0.2 0.4 0.4 0.8 0.2 0.4 0.4 0.8 0.4 0.4 0.9 0.8 0.5 0.3 1 0.6 0.5 0.2 1.1 0.3 0.6 0.2 1.2 0.1 0.4 0 0.8 0 0.5-0.1 0.9-0.2 0.4-0.1 0.7-0.3 0.4-0.2 0.7-0.5 0.3-0.2 0.5-0.4 0.2-0.3 0.3-0.6 0.2-0.2 0.2-0.6 0.1-0.3 0.1-0.6 0-0.3 0-0.6-0.1-0.3-0.2-0.6-0.2-0.2-0.4-0.5-0.1-0.2-0.4-0.4-1-1-4.8-1.8-6.3-1.4-8.9-3.7-0.7-0.6-1.2-1.2-0.5-0.7-0.8-1.5-0.4-0.7-0.5-1.5-0.2-0.9-0.2-1.7 0-0.6 0.1-1.2 0.1-0.6 0.2-1.1 0.2-0.6 0.5-1.1 0.2-0.6 0.6-1.1 0.3-0.5 0.8-1 0.5-0.5 1-0.9 0.5-0.4 1.1-0.8 0.6-0.3 1.2-0.6 0.9-0.3 1.8-0.6 0.9-0.2 1.9-0.4 0.9-0.1 1.9-0.2 1 0 1.9 0 5.9 0 9 2.2 3.1 2.2 3.7 7l-8.9 0.5q-0.1-0.9-0.4-1.6-0.4-0.8-1.1-1.4-0.6-0.6-1.5-0.8-0.8-0.3-1.7-0.2-0.3 0-0.6 0-0.4 0.1-0.7 0.2-0.3 0-0.6 0.2-0.3 0.1-0.6 0.3-0.2 0.2-0.3 0.4-0.2 0.2-0.3 0.4-0.1 0.2-0.2 0.4 0 0.3 0 0.5 0 0.2 0 0.4 0.1 0.2 0.2 0.4 0.1 0.1 0.2 0.3 0.1 0.1 0.3 0.2 0.3 0.3 0.7 0.5 0.4 0.1 0.8 0.3 0.4 0.1 0.8 0.2 0.4 0.1 0.9 0.2 1.1 0.2 2.3 0.5 1.1 0.2 2.2 0.6 1.1 0.3 2.2 0.7 1.1 0.4 2.2 0.9 0.6 0.3 1.1 0.6 0.6 0.4 1.1 0.8 0.5 0.4 0.9 0.9 0.4 0.5 0.8 1.1 0.3 0.5 0.5 1.1 0.3 0.5 0.4 1.1 0.2 0.6 0.2 1.1 0.1 0.6 0.1 1.2 0 0.8-0.1 1.5-0.1 0.7-0.3 1.4-0.2 0.7-0.5 1.3-0.3 0.7-0.7 1.3-0.4 0.6-0.9 1.2-0.5 0.5-1.1 1-0.6 0.5-1.3 0.9-0.6 0.4-1.3 0.6-0.9 0.4-1.8 0.7-0.9 0.2-1.8 0.4-0.9 0.1-1.9 0.2-0.9 0.1-1.9 0-7.8 0-10.8-3-0.8-0.7-1.4-1.6-0.6-0.9-1-1.9-0.5-1-0.7-2-0.3-1.1-0.4-2.1z"/>
			<text id="WORLDWIDE" style="transform: matrix(1,0,0,1,224.82,147.37)" >
				<tspan x="0" y="0" class="t2">WORLDWIDE
</tspan>
			</text>
		</g>
	</g>
</svg>