<svg version="1.2" xmlns="http://www.w3.org/2000/svg" viewBox="0 0 472 336" width="472" height="336">
	<title>Layer_2</title>
	<style>
		.s0 { fill: #ffffff } 
	</style>
	<g id="Layer_2">
		<g id="-e-Layer_1-2">
			<path id="Layer" class="s0" d="m44.9 95c-1.1 2.3-0.7 4.3-0.7 6.2 0 24.2-0.1 48.4 0.1 72.5 0 4.4-0.9 6.2-5.8 6-11-0.3-22-0.2-33 0-3.4 0-4.5-1.1-4.5-4.6q0.1-74.4 0-149c0-3.4 1-4.7 4.5-4.6q16.5 0.3 33 0c3.1 0 4.7 1.6 6.5 3.8q28.6 36.9 57.4 73.7c1.2 1.4 2.3 2.8 3.6 4.4 1.8-1.8 1.1-3.7 1.1-5.4 0-23.6 0.2-47.3 0-71 0-4.4 1.3-5.7 5.6-5.5 11 0.2 22 0.2 33 0 3.5 0 4.7 1 4.7 4.5q-0.2 74.5 0 149c0 4-1.6 4.7-5 4.7-9.7-0.2-19.4-0.2-29 0-3.4 0.1-5.5-1.2-7.5-3.8q-29.9-38.6-60-76.9c-1.1-1.4-1.9-3.1-4-4z"/>
			<path id="Layer" class="s0" d="m161.8 100.4c0-24.5 0-49-0.1-73.5 0-4 0.9-5.5 5.2-5.5q58 0.3 116 0c4.2 0 5.4 1.3 5.3 5.4-0.3 9.5-0.3 19 0 28.5 0.1 3.8-1.2 4.8-4.8 4.8-24-0.2-48 0-72-0.2-5-0.1-6.4 1.5-6 6.2q0.1 1.8 0.2 3.6 0 1.8 0 3.6 0 1.8 0 3.7-0.1 1.8-0.2 3.6c-0.4 4.5 1 6 5.7 5.9 21-0.2 42 0 63-0.2 4.7 0 6.4 1.1 6.2 6-0.4 8.5-0.3 17 0 25.5 0.1 4.1-1.1 5.4-5.3 5.3-21.3-0.2-42.6 0-64-0.1-4.3 0-5.7 1-5.6 5.5 0.2 15.3 0 30.6 0.1 46 0.1 3.8-0.9 5.2-5 5.1-11.3-0.2-22.6-0.2-34 0-3.7 0.1-4.8-1-4.8-4.8 0.1-24.8 0.1-49.6 0.1-74.4z"/>
			<path id="Layer" class="s0" d="m367.2 21.5c21 0 42 0.2 62.9-0.1 5.3-0.1 6.5 1.6 6.3 6.5-0.4 9.1-0.3 18.3 0 27.4 0.1 3.9-1.3 4.8-4.9 4.8-12.5-0.2-25 0-37.5-0.2-3.9-0.1-5 1.1-5 5 0.2 36.3 0 72.6 0.2 108.9 0 4.6-1.3 6-5.8 5.8-10.9-0.3-21.7-0.3-32.5 0-5.1 0.2-5.9-1.6-5.9-6.2 0.2-36 0-72 0.2-107.9 0-4.3-0.9-5.8-5.5-5.7-12.5 0.3-25 0-37.4 0.2-3.6 0-4.6-1.1-4.6-4.6 0.2-9.6 0.3-19.3 0-29-0.1-3.9 1.2-5.1 5.1-5 21.4 0.2 42.9 0.1 64.4 0.1z"/>
			<path id="Layer" class="s0" d="m77.5 279.5l-10.8 16.6c-3.7 5.7-7.5 11.4-11.1 17.2-1.7 2.7-2.8 2.6-4.5 0-6.7-10.6-13.6-21-20.4-31.4-0.5-0.7-1-1.3-1.6-2-1.8 1.6-1 3.6-1 5.3-0.1 14.8-0.2 29.6 0 44.4 0 3.5-1 4.8-4.6 4.6-5.8-0.2-11.6-0.3-17.5 0-3.9 0.2-5.1-1-5.1-5 0.2-25.2 0.1-50.3 0.1-75.5 0-4.6 0.2-9.3 0-14-0.2-3.2 0.9-4.4 4.2-4.3q10.5 0.3 21 0c2.9-0.1 4.5 1 6 3.4 6.2 10.3 12.5 20.5 18.8 30.6 0.7 1.2 1.5 2.2 2.3 3.2 2-1 2.6-2.8 3.5-4.3 6.1-9.8 12.1-19.6 18.1-29.4 1.4-2.4 3-3.6 5.9-3.5 7 0.2 14 0.2 21 0 3.2-0.1 4.3 0.8 4.3 4.2q-0.2 45.2 0 90.5c0 3-0.8 4.2-4 4.1-6.3-0.2-12.7-0.3-19 0-3.7 0.1-4.4-1.4-4.4-4.7 0.2-14.7 0.1-29.3 0.1-44v-5.4z"/>
			<path id="Layer" fill-rule="evenodd" class="s0" d="m165.5 336c-30.1 0-53.2-22.2-53.1-51.3 0-28.8 23.3-51.3 53.3-51.4 29.9-0.1 53.2 22.5 53.1 51.4 0 29-23.2 51.3-53.3 51.3zm0-24.7c14.5 0 25.4-11.3 25.4-26.4 0-14.9-11.2-26.7-25.3-26.8-14.3-0.2-25.3 11.3-25.3 26.5 0 15.1 11 26.6 25.2 26.7z"/>
			<path id="Layer" class="s0" d="m356.1 284.6c0-15 0.1-30-0.1-45 0-3.3 1.1-4.2 4.2-4.2q35.5 0.1 71 0c3.3 0 4.4 1.1 4.3 4.3q-0.1 1.7-0.2 3.5 0 1.7 0 3.5 0 1.8 0 3.5 0.1 1.8 0.2 3.5c0.3 4.4-1.6 5.2-5.5 5.2-14-0.2-28 0-42-0.2-4-0.1-5.1 1.2-5 5.1 0.2 9.9 0 9.9 9.7 9.9 11 0 22 0.1 33-0.1 3.5 0 5.1 0.8 4.8 4.7q-0.1 1.6-0.1 3.1-0.1 1.6-0.1 3.1 0 1.6 0.1 3.2 0 1.5 0.1 3.1c0.3 3.6-1.2 4.4-4.6 4.4-12.8-0.2-25.7 0-38.5-0.1-3.1 0-4.3 0.8-4.4 4.2-0.1 11.6-0.3 11.6 11.4 11.6 12.3 0 24.6 0.1 37-0.1 3.5 0 5.1 0.7 4.9 4.6-0.4 5.2-0.2 10.4-0.1 15.5 0 2.4-0.9 3.3-3.2 3.2-24.5 0-49 0-73.5 0-3.7 0-3.4-2-3.4-4.5q0-22.5 0-45z"/>
			<path id="Layer" class="s0" d="m263.9 297.2c2.4-6.5 4.3-11.6 6.1-16.7 4.9-13.5 9.8-26.9 14.4-40.5 1.2-3.2 2.6-4.8 6.4-4.7 7.1 0.4 14.3 0.2 21.4 0.1 3 0 3.9 0.8 2.7 3.7q-18.8 46.3-37.4 92.6c-1 2.4-2.3 3.3-4.8 3.2q-9.3-0.2-18.5 0c-2.6 0.1-3.8-1-4.8-3.3q-18.5-46.3-37.3-92.6c-1-2.5-0.8-3.6 2.2-3.6 8 0.1 16 0.2 24 0 3.3-0.1 3.8 2 4.6 4.2q9.5 26.5 19.1 53.1c0.4 1 0.9 2.1 1.9 4.5z"/>
			<path id="Layer" class="s0" d="m317.1 284.6c0-14.7 0.2-29.4-0.1-44 0-4.4 1.4-5.5 5.4-5.3 6 0.3 12 0.2 18 0 3 0 4.5 0.7 4.5 4.2q-0.2 45.2 0 90.4c0 3.3-1.2 4.3-4.4 4.2-6.3-0.2-12.7-0.2-19 0-3.7 0.2-4.4-1.3-4.4-4.7 0.1-14.9 0-29.8 0-44.8z"/>
			<path id="Layer" class="s0" d="m83 204q38.5 0 77 0c3 0 5.2 0.2 4.9 4.2-0.2 2.1-0.9 3-3 2.9-0.9-0.1-1.7 0-2.5 0q-76.5 0-153-0.1c-2 0-4.9 1.5-5.4-2.5-0.5-3.9 1.6-4.5 5-4.5 25.7 0.1 51.3 0 77 0z"/>
			<path id="Layer" class="s0" d="m354.2 211.1q-38.5 0-77 0c-3.1 0-5.2-0.3-4.8-4.2 0.2-2.1 1-3 3.1-2.9q0.7 0 1.5 0 77.2 0 154.4 0c2 0 4.5-0.9 4.8 2.7 0.3 3.5-1.2 4.4-4.6 4.4-25.8-0.1-51.6 0-77.4 0z"/>
			<path id="Layer" class="s0" d="m210.7 200.7c2-1.2 3-1.8 4-2.3 6.4-3.2 13.5 0.3 14 7.4 0.5 6 0.2 12 0.2 18 0 4-3 2.7-5.1 2.8-2 0-5 1-5-2.9 0-3.9 0-8 0-12 0-2.8-0.8-5.3-4-5.3-3.2 0-4.1 2.4-4.1 5.2 0 3.8-0.2 7.6 0 11.4 0.2 3.5-1.8 3.9-4.5 3.6-2.4-0.2-5.7 1.2-5.7-3.3 0-10.7 0.1-21.3 0-32 0-4.1 2.8-3.4 5.2-3.4 2.4 0 5.2-0.6 5 3.4-0.2 2.8 0 5.7 0 9.4z"/>
			<path id="Layer" fill-rule="evenodd" class="s0" d="m248.2 227.1c-10-0.1-16.1-6.6-15.5-15.9 0.5-8.8 7.5-14.8 16.1-13.9 1.8 0.2 3.5 0.7 5.1 1.6 1.6 0.8 3 1.9 4.1 3.3 1.2 1.4 2.1 2.9 2.7 4.6 0.6 1.7 0.8 3.5 0.7 5.3-0.1 2.7-1.6 2.9-3.6 2.9q-6 0-12 0c-0.9 0-2.2-0.4-2.6 0.8-0.5 1.4 0.6 2.2 1.6 2.8q0.8 0.6 1.8 0.9 1 0.3 2 0.3 1-0.1 2-0.4 0.9-0.3 1.7-0.9c3.6-2.7 5.5 0.3 6.8 2.3 1.5 2.3-1.5 3.1-2.9 4.2q-0.9 0.6-1.8 1-1 0.5-2 0.7-1 0.3-2.1 0.4-1 0.1-2.1 0zm-1-17c1.2-1.2 4 1.2 4.2-1.5 0.2-2.3-1.8-3.7-4.3-3.7-2.3 0-4.1 1.2-4.2 3.3-0.1 3 2.7 1 4.3 1.9z"/>
			<path id="Layer" class="s0" d="m189.7 227c-7.2 0.1-10.1-2.7-10.4-9.5-0.1-2.4 0-4.7-0.1-7-0.1-1.9 0.4-3.5-2.1-4.9-2.5-1.4-2.1-5.6-0.4-7 2.1-1.6 2.5-3.1 2.6-5.3 0.3-4.2 3.6-2.3 5.7-2.6 2.2-0.2 4.7-0.5 4.4 3-0.3 2.8 0.6 4.5 3.8 4.2 3.5-0.2 2.8 2.5 2.9 4.5 0.2 2.4-0.4 4-3.2 3.6-3.1-0.4-4 1.4-3.5 3.9 0.6 2.8-2.2 7.4 2.8 8.2 3 0.4 3.9 1 3.9 4 0 3.3-1.6 4.4-4.4 4.7-0.8 0.2-1.6 0.2-2 0.2z"/>
			<path id="Layer" class="s0" d="m457.4 9.2q0 3.2 0 6.3c0 1-0.2 2-1.5 2.2q-0.4 0.1-0.8 0-0.4-0.1-0.7-0.3-0.3-0.3-0.4-0.6-0.2-0.4-0.1-0.8c0-4.7-0.5-9.4 0.1-14 0.4-2.9 2.9-2.2 4.5-0.5q0.5 0.6 1 1.2 0.5 0.7 0.9 1.3 0.5 0.7 0.9 1.4 0.5 0.7 0.9 1.4c2.2-1.3 2.8-3.6 4.1-5.2q0.3-0.4 0.7-0.7 0.4-0.3 0.9-0.5 0.4-0.2 1-0.2 0.5 0 0.9 0.2c1.6 0.4 1.3 1.7 1.3 2.8q0.1 5.8 0 11.5c0 1.3 0.4 2.9-1.7 3-2.2 0.1-2.1-1.6-2.1-3.1q0-0.8 0-1.6 0-0.7-0.1-1.5-0.1-0.8-0.1-1.6-0.1-0.8-0.3-1.6c-3 5.5-5.8 5-8.5-0.2z"/>
			<path id="Layer" class="s0" d="m450.9 1.6c0 1.3-0.4 2.1-1.4 2.1-4.6-0.2-3.6 3.1-3.7 5.8 0 2.1 0 4.3-0.1 6.4q0 0.4-0.1 0.8-0.2 0.3-0.4 0.6-0.3 0.2-0.7 0.4-0.3 0.1-0.7 0.1-0.4 0-0.7-0.1-0.4-0.2-0.7-0.4-0.2-0.3-0.4-0.6-0.1-0.4-0.1-0.8c-0.1-2.3-0.1-4.6-0.1-7 0-2.6 0.5-5.6-3.8-5.2q-0.3 0-0.6-0.1-0.3-0.1-0.5-0.4-0.2-0.2-0.3-0.5-0.1-0.3 0-0.6c0-0.6 0.5-1.5 0.9-1.6q1.5-0.2 3.1-0.3 1.5-0.1 3.1-0.1 1.5 0 3.1 0.1 1.5 0.1 3 0.3c0.5 0 0.9 0.8 1.1 1.1z"/>
		</g>
	</g>
</svg>