<?xml version="1.0" standalone="no"?>
<!DOCTYPE svg PUBLIC "-//W3C//DTD SVG 1.1//EN" "http://www.w3.org/Graphics/SVG/1.1/DTD/svg11.dtd" >
<svg xmlns="http://www.w3.org/2000/svg" xmlns:xlink="http://www.w3.org/1999/xlink" version="1.1">
<metadata>
Created by FontForge 20170812 at Fri Feb  8 20:55:35 2019
 By root
Copyright zephram 2019
</metadata>
<defs>
<font id="Arizone-Unicase" horiz-adv-x="4915" >
  <font-face 
    font-family="Arizone Unicase"
    font-weight="400"
    font-stretch="normal"
    units-per-em="4096"
    panose-1="0 0 4 0 0 0 0 0 0 0"
    ascent="4096"
    descent="0"
    x-height="4096"
    cap-height="4096"
    bbox="0 -409 4096 4505"
    underline-thickness="204"
    underline-position="307"
    unicode-range="U+0020-201D"
  />
    <missing-glyph />
    <glyph glyph-name="space" unicode=" " 
 />
    <glyph glyph-name="exclam" unicode="!" 
d="M1638 0v819h819v-819h-819zM1638 1228v2868h819v-2868h-819z" />
    <glyph glyph-name="quotedbl" unicode="&#x22;" 
d="M819 2867v1229h819v-1229h-819zM2457 2867v1229h819v-1229h-819z" />
    <glyph glyph-name="numbersign" unicode="#" 
d="M2457 1638v819h-819v-819h819zM819 0v819h-819v819h819v819h-819v819h819v820h819v-820h819v820h819v-820h820v-819h-820v-819h820v-819h-820v-819h-819v819h-819v-819h-819z" />
    <glyph glyph-name="dollar" unicode="$" 
d="M3276 819v819h-819v-819h819zM1638 2457v819h-819v-819h819zM1638 -409v409h-819q-340 0 -579 240q-240 240 -240 579v409h819v-409h819v819h-819q-340 0 -579 240q-240 240 -240 579v819q0 340 240 579q240 241 579 241h819v409h819v-409h819q340 0 579 -241
q241 -240 241 -579v-409h-820v409h-819v-819h819q340 0 579 -240q241 -240 241 -579v-819q0 -340 -241 -579q-240 -240 -579 -240h-819v-409h-819z" />
    <glyph glyph-name="percent" unicode="%" 
d="M3072 819q-170 0 -290 119q-120 121 -120 290q0 170 120 290t290 120q169 0 289 -120t120 -290q0 -169 -120 -290q-120 -119 -289 -119v0zM1024 2457q-170 0 -290 120t-120 290q0 169 120 290q120 119 290 119q169 0 289 -119q120 -121 120 -290q0 -170 -120 -290
t-289 -120v0zM1024 819l1228 2457h820l-1229 -2457h-819z" />
    <glyph glyph-name="ampersand" unicode="&#x26;" 
d="M2457 819v819h-1638v-819h1638zM1638 2457v819h-819v-819h819zM819 0q-339 0 -579 240q-240 239 -240 579v819q0 169 119 290q121 120 290 120q-169 0 -290 119q-119 121 -119 290v819q0 339 240 579q239 241 579 241h819q340 0 579 -241q240 -240 240 -579v-819h1639
v-819h-820v-819h820v-819h-3277z" />
    <glyph glyph-name="quotesingle" unicode="'" 
d="M1638 2867v1229h819v-1229h-819z" />
    <glyph glyph-name="parenleft" unicode="(" 
d="M2048 0q-340 0 -580 240t-240 579v2457q0 340 240 579q240 241 580 241h819v-820h-819v-2457h819v-819h-819z" />
    <glyph glyph-name="parenright" unicode=")" 
d="M1228 0v819h820v2457h-820v820h820q339 0 579 -241q240 -239 240 -579v-2457q0 -339 -240 -579t-579 -240h-820z" />
    <glyph glyph-name="asterisk" unicode="*" 
d="M1794 3297l97 297l-253 184h313l97 298l96 -298h313l-253 -184l97 -297l-253 183l-254 -183v0z" />
    <glyph glyph-name="plus" unicode="+" 
d="M1638 0v1638h-1638v819h1638v1639h819v-1639h1639v-819h-1639v-1638h-819z" />
    <glyph glyph-name="comma" unicode="," 
d="M1643 -409q168 2 287 122q118 120 118 287h-410v819h819v-410q0 -338 -238 -576q-238 -240 -576 -242v0z" />
    <glyph glyph-name="hyphen" unicode="-" 
d="M0 1638v819h4096v-819h-4096z" />
    <glyph glyph-name="period" unicode="." 
d="M1638 0v819h819v-819h-819z" />
    <glyph glyph-name="slash" unicode="/" 
d="M614 0l2048 4096h819l-2048 -4096h-819z" />
    <glyph glyph-name="zero" unicode="0" 
d="M1638 1638v819h819v-819h-819zM3276 819v2457h-2457v-2457h2457zM819 0q-340 0 -579 240q-240 240 -240 579v2457q0 340 240 579q240 241 579 241h2457q340 0 579 -241q241 -240 241 -579v-2457q0 -340 -241 -579q-240 -240 -579 -240h-2457z" />
    <glyph glyph-name="one" unicode="1" 
d="M0 0v819h1638v2048l-1638 -819v819l2457 1229v-3277h1639v-819h-4096z" />
    <glyph glyph-name="two" unicode="2" 
d="M0 0v1638q0 339 240 579q239 240 579 240h2457v819h-2457v-409h-819v409q0 340 240 579q240 241 579 241h2457q339 0 579 -241q241 -239 241 -579v-819q0 -339 -241 -579q-239 -240 -579 -240h-2457v-819h3277v-819h-4096z" />
    <glyph glyph-name="three" unicode="3" 
d="M819 0q-339 0 -579 240q-240 239 -240 579v409h819v-409h2457v819h-1638v819h1638v819h-2457v-409h-819v409q0 339 240 579q239 241 579 241h2457q340 0 579 -241q241 -240 241 -579v-819q0 -169 -120 -290q-121 -119 -290 -119q169 0 290 -120q120 -121 120 -290v-819
q0 -340 -241 -579q-240 -240 -579 -240h-2457z" />
    <glyph glyph-name="four" unicode="4" 
d="M3276 0v1638h-3276l1228 2458h820l-820 -1639h2048v1639h820v-4096h-820z" />
    <glyph glyph-name="five" unicode="5" 
d="M819 0q-339 0 -579 240q-240 239 -240 579v409h819v-409h2457v819h-2457q-340 0 -579 240q-240 240 -240 579v1639h4096v-820h-3277v-819h2457q340 0 579 -240q241 -240 241 -579v-819q0 -340 -241 -579q-240 -240 -579 -240h-2457z" />
    <glyph glyph-name="six" unicode="6" 
d="M3276 819v819h-2457v-819h2457zM819 0q-339 0 -579 240q-240 239 -240 579v2457q0 340 240 579q240 241 579 241h2457q340 0 579 -241q241 -240 241 -579v-409h-820v409h-2457v-819h2457q340 0 579 -240q241 -240 241 -579v-819q0 -340 -241 -579q-240 -240 -579 -240
h-2457z" />
    <glyph glyph-name="seven" unicode="7" 
d="M1228 0l1639 3276h-2867v820h4096l-2048 -4096h-820z" />
    <glyph glyph-name="eight" unicode="8" 
d="M3276 819v819h-2457v-819h2457zM3276 2457v819h-2457v-819h2457zM819 0q-339 0 -579 240q-240 239 -240 579v819q0 169 119 290q121 120 290 120q-169 0 -290 119q-119 121 -119 290v819q0 339 240 579q239 241 579 241h2457q340 0 579 -241q241 -240 241 -579v-819
q0 -169 -120 -290q-121 -119 -290 -119q169 0 290 -120q120 -121 120 -290v-819q0 -340 -241 -579q-240 -240 -579 -240h-2457z" />
    <glyph glyph-name="nine" unicode="9" 
d="M3276 2457v819h-2457v-819h2457zM819 0q-340 0 -579 240q-240 240 -240 579v409h819v-409h2457v819h-2457q-340 0 -579 240q-240 240 -240 579v819q0 340 240 579q240 241 579 241h2457q339 0 579 -241q241 -239 241 -579v-2457q0 -340 -241 -579q-240 -240 -579 -240
h-2457z" />
    <glyph glyph-name="colon" unicode=":" 
d="M1638 819v819h819v-819h-819zM1638 2457v819h819v-819h-819z" />
    <glyph glyph-name="semicolon" unicode=";" 
d="M1643 409q168 3 287 122q118 120 118 288h-410v819h819v-410q0 -338 -238 -577t-576 -242v0zM1638 2457v819h819v-819h-819z" />
    <glyph glyph-name="less" unicode="&#x3c;" 
d="M4096 0l-4096 2048l4096 2048v-820l-2458 -1228l2458 -1229v-819v0z" />
    <glyph glyph-name="equal" unicode="=" 
d="M0 819v819h4096v-819h-4096zM0 2457v819h4096v-819h-4096z" />
    <glyph glyph-name="greater" unicode="&#x3e;" 
d="M0 0v819l2457 1229l-2457 1228v820l4096 -2048l-4096 -2048v0z" />
    <glyph glyph-name="question" unicode="?" 
d="M1638 0v819h819v-819h-819zM1638 1228v1229h1638v819h-2457v-409h-819v409q0 340 240 579q240 241 579 241h2457q340 0 579 -241q241 -240 241 -579v-819q0 -340 -241 -579q-240 -240 -579 -240h-819v-410h-819z" />
    <glyph glyph-name="at" unicode="@" 
d="M3276 2457v819h-819v-819h819zM819 0q-340 0 -579 240q-240 240 -240 579v2457q0 340 240 579q240 241 579 241h2457q340 0 579 -241q241 -240 241 -579v-819q0 -340 -241 -579q-240 -240 -579 -240h-819q-340 0 -579 240q-240 240 -240 579v819h-819v-2457h3277v-819
h-3277z" />
    <glyph glyph-name="A" unicode="A" 
d="M0 0l2048 4096l2048 -4096h-820l-1228 2457l-1229 -2457h-819z" />
    <glyph glyph-name="B" unicode="B" 
d="M3276 819v819h-2457v-819h2457zM3276 2457v819h-2457v-819h2457zM0 0v4096h3276q340 0 579 -241q241 -240 241 -579v-819q0 -169 -120 -290q-121 -119 -290 -119q169 0 290 -120q120 -121 120 -290v-819q0 -340 -241 -579q-240 -240 -579 -240h-3276z" />
    <glyph glyph-name="C" unicode="C" 
d="M819 0q-340 0 -579 240q-240 240 -240 579v2457q0 340 240 579q240 241 579 241h2457q340 0 579 -241q241 -240 241 -579v-409h-820v409h-2457v-2457h2457v409h820v-409q0 -340 -241 -579q-240 -240 -579 -240h-2457z" />
    <glyph glyph-name="D" unicode="D" 
d="M3276 819v2457h-2457v-2457h2457zM0 0v4096h3276q340 0 579 -241q241 -240 241 -579v-2457q0 -340 -241 -579q-240 -240 -579 -240h-3276z" />
    <glyph glyph-name="E" unicode="E" 
d="M0 0v819h4096v-819h-4096zM0 1638v819h4096v-819h-4096zM0 3276v820h4096v-820h-4096z" />
    <glyph glyph-name="F" unicode="F" 
d="M0 0v4096h4096v-820h-3277v-819h3277v-819h-3277v-1638h-819z" />
    <glyph glyph-name="G" unicode="G" 
d="M819 0q-340 0 -579 240q-240 240 -240 579v2457q0 340 240 579q240 241 579 241h3277v-820h-3277v-2457h2457v819h-1228v819h2048v-2457h-3277z" />
    <glyph glyph-name="H" unicode="H" 
d="M0 0v4096h819v-1639h2457v1639h820v-4096h-820v1638h-2457v-1638h-819z" />
    <glyph glyph-name="I" unicode="I" 
d="M0 0v819h1638v2457h-1638v820h4096v-820h-1639v-2457h1639v-819h-4096z" />
    <glyph glyph-name="J" unicode="J" 
d="M819 0q-340 0 -579 240q-240 240 -240 579v409h819v-409h2457v2457h-1638v820h2458v-3277q0 -339 -241 -579q-239 -240 -579 -240h-2457z" />
    <glyph glyph-name="K" unicode="K" 
d="M0 0v4096h819v-1639h409l1639 1639h1229l-1639 -1639h-3l-406 -409l2048 -2048h-1229l-1639 1638h-409v-1638h-819z" />
    <glyph glyph-name="L" unicode="L" 
d="M0 0v4096h819v-3277h3277v-819h-4096z" />
    <glyph glyph-name="M" unicode="M" 
d="M0 0v4096h614l1024 -1024v-4l410 -406l1433 1434h615v-4096h-820v2662l-1228 -1229l-1229 1229v-2662h-819z" />
    <glyph glyph-name="N" unicode="N" 
d="M0 0v4096h614l2662 -2663v2663h820v-4096h-615l-2662 2662v-2662h-819z" />
    <glyph glyph-name="O" unicode="O" 
d="M3276 819v2457h-2457v-2457h2457zM819 0q-340 0 -579 240q-240 240 -240 579v2457q0 340 240 579q240 241 579 241h2457q340 0 579 -241q241 -240 241 -579v-2457q0 -340 -241 -579q-240 -240 -579 -240h-2457z" />
    <glyph glyph-name="P" unicode="P" 
d="M3276 2457v819h-2457v-819h2457zM0 0v4096h3276q340 0 579 -241q241 -240 241 -579v-819q0 -340 -241 -579q-240 -240 -579 -240h-2457v-1638h-819z" />
    <glyph glyph-name="Q" unicode="Q" 
d="M3276 819v2457h-2457v-2457h819v1638h819v-1638h819zM819 0q-340 0 -579 240q-240 240 -240 579v2457q0 340 240 579q240 241 579 241h2457q340 0 579 -241q241 -240 241 -579v-2457q0 -340 -241 -579q-240 -240 -579 -240h-2457z" />
    <glyph glyph-name="R" unicode="R" 
d="M3276 2457v819h-2457v-819h2457zM0 0v4096h3276q340 0 579 -241q241 -240 241 -579v-819q0 -340 -241 -579q-240 -240 -579 -240l820 -1638h-820l-819 1638h-1638v-1638h-819z" />
    <glyph glyph-name="S" unicode="S" 
d="M819 0q-340 0 -579 240q-240 240 -240 579v409h819v-409h2457v819h-2457q-340 0 -579 240q-240 240 -240 579v819q0 340 240 579q240 241 579 241h2457q340 0 579 -241q241 -240 241 -579v-409h-820v409h-2457v-819h2457q340 0 579 -240q241 -240 241 -579v-819
q0 -340 -241 -579q-240 -240 -579 -240h-2457z" />
    <glyph glyph-name="T" unicode="T" 
d="M1638 0v3276h-1638v820h4096v-820h-1639v-3276h-819z" />
    <glyph glyph-name="U" unicode="U" 
d="M819 0q-340 0 -579 240q-240 240 -240 579v3277h819v-3277h2457v3277h820v-3277q0 -340 -241 -579q-240 -240 -579 -240h-2457z" />
    <glyph glyph-name="V" unicode="V" 
d="M2048 0l-2048 4096h819l1229 -2458l1228 2458h820l-2048 -4096v0z" />
    <glyph glyph-name="W" unicode="W" 
d="M0 0v4096h819v-2663l1229 1229l1228 -1229v2663h820v-4096h-615l-1433 1433l-410 -406v-3l-1024 -1024h-614z" />
    <glyph glyph-name="X" unicode="X" 
d="M0 0l1536 2048l-102 136h-1l-1433 1912h1024l1024 -1366l1024 1366h1024l-1434 -1912h-1l-101 -136l1536 -2048h-1024l-1024 1365l-1024 -1365h-1024z" />
    <glyph glyph-name="Y" unicode="Y" 
d="M1638 0v1911l-1638 2185h1024l1024 -1366l1024 1366h1024l-1639 -2185v-1911h-819z" />
    <glyph glyph-name="Z" unicode="Z" 
d="M0 0v614l2662 2662h-2662v820h4096v-615l-2663 -2662h2663v-819h-4096z" />
    <glyph glyph-name="bracketleft" unicode="[" 
d="M1228 0v4096h1639v-820h-819v-2457h819v-819h-1639z" />
    <glyph glyph-name="backslash" unicode="\" 
d="M2662 0l-2048 4096h819l2048 -4096h-819z" />
    <glyph glyph-name="bracketright" unicode="]" 
d="M1228 0v819h820v2457h-820v820h1639v-4096h-1639z" />
    <glyph glyph-name="asciicircum" unicode="^" 
d="M819 1638l1229 2458l1228 -2458h-819l-409 819l-410 -819h-819z" />
    <glyph glyph-name="underscore" unicode="_" 
d="M0 0v819h4096v-819h-4096z" />
    <glyph glyph-name="grave" unicode="`" 
d="M2457 3276l-819 410v410l819 -410v-410v0z" />
    <glyph glyph-name="a" unicode="a" 
d="M0 0l2048 4096l2048 -4096h-820l-1228 2457l-1229 -2457h-819z" />
    <glyph glyph-name="b" unicode="b" 
d="M3276 819v819h-2457v-819h2457zM3276 2457v819h-2457v-819h2457zM0 0v4096h3276q340 0 579 -241q241 -240 241 -579v-819q0 -169 -120 -290q-121 -119 -290 -119q169 0 290 -120q120 -121 120 -290v-819q0 -340 -241 -579q-240 -240 -579 -240h-3276z" />
    <glyph glyph-name="c" unicode="c" 
d="M819 0q-340 0 -579 240q-240 240 -240 579v2457q0 340 240 579q240 241 579 241h2457q340 0 579 -241q241 -240 241 -579v-409h-820v409h-2457v-2457h2457v409h820v-409q0 -340 -241 -579q-240 -240 -579 -240h-2457z" />
    <glyph glyph-name="d" unicode="d" 
d="M3276 819v2457h-2457v-2457h2457zM0 0v4096h3276q340 0 579 -241q241 -240 241 -579v-2457q0 -340 -241 -579q-240 -240 -579 -240h-3276z" />
    <glyph glyph-name="e" unicode="e" 
d="M0 0v819h4096v-819h-4096zM0 1638v819h4096v-819h-4096zM0 3276v820h4096v-820h-4096z" />
    <glyph glyph-name="f" unicode="f" 
d="M0 0v4096h4096v-820h-3277v-819h3277v-819h-3277v-1638h-819z" />
    <glyph glyph-name="g" unicode="g" 
d="M819 0q-340 0 -579 240q-240 240 -240 579v2457q0 340 240 579q240 241 579 241h3277v-820h-3277v-2457h2457v819h-1228v819h2048v-2457h-3277z" />
    <glyph glyph-name="h" unicode="h" 
d="M0 0v4096h819v-1639h2457v1639h820v-4096h-820v1638h-2457v-1638h-819z" />
    <glyph glyph-name="i" unicode="i" 
d="M0 0v819h1638v2457h-1638v820h4096v-820h-1639v-2457h1639v-819h-4096z" />
    <glyph glyph-name="j" unicode="j" 
d="M819 0q-340 0 -579 240q-240 240 -240 579v409h819v-409h2457v2457h-1638v820h2458v-3277q0 -339 -241 -579q-239 -240 -579 -240h-2457z" />
    <glyph glyph-name="k" unicode="k" 
d="M0 0v4096h819v-1639h409l1639 1639h1229l-1639 -1639h-3l-406 -409l2048 -2048h-1229l-1639 1638h-409v-1638h-819z" />
    <glyph glyph-name="l" unicode="l" 
d="M0 0v4096h819v-3277h3277v-819h-4096z" />
    <glyph glyph-name="m" unicode="m" 
d="M0 0v4096h614l1024 -1024v-4l410 -406l1433 1434h615v-4096h-820v2662l-1228 -1229l-1229 1229v-2662h-819z" />
    <glyph glyph-name="n" unicode="n" 
d="M0 0v4096h614l2662 -2663v2663h820v-4096h-615l-2662 2662v-2662h-819z" />
    <glyph glyph-name="o" unicode="o" 
d="M3276 819v2457h-2457v-2457h2457zM819 0q-340 0 -579 240q-240 240 -240 579v2457q0 340 240 579q240 241 579 241h2457q340 0 579 -241q241 -240 241 -579v-2457q0 -340 -241 -579q-240 -240 -579 -240h-2457z" />
    <glyph glyph-name="p" unicode="p" 
d="M3276 2457v819h-2457v-819h2457zM0 0v4096h3276q340 0 579 -241q241 -240 241 -579v-819q0 -340 -241 -579q-240 -240 -579 -240h-2457v-1638h-819z" />
    <glyph glyph-name="q" unicode="q" 
d="M3276 819v2457h-2457v-2457h819v1638h819v-1638h819zM819 0q-340 0 -579 240q-240 240 -240 579v2457q0 340 240 579q240 241 579 241h2457q340 0 579 -241q241 -240 241 -579v-2457q0 -340 -241 -579q-240 -240 -579 -240h-2457z" />
    <glyph glyph-name="r" unicode="r" 
d="M3276 2457v819h-2457v-819h2457zM0 0v4096h3276q340 0 579 -241q241 -240 241 -579v-819q0 -340 -241 -579q-240 -240 -579 -240l820 -1638h-820l-819 1638h-1638v-1638h-819z" />
    <glyph glyph-name="s" unicode="s" 
d="M819 0q-340 0 -579 240q-240 240 -240 579v409h819v-409h2457v819h-2457q-340 0 -579 240q-240 240 -240 579v819q0 340 240 579q240 241 579 241h2457q340 0 579 -241q241 -240 241 -579v-409h-820v409h-2457v-819h2457q340 0 579 -240q241 -240 241 -579v-819
q0 -340 -241 -579q-240 -240 -579 -240h-2457z" />
    <glyph glyph-name="t" unicode="t" 
d="M1638 0v3276h-1638v820h4096v-820h-1639v-3276h-819z" />
    <glyph glyph-name="u" unicode="u" 
d="M819 0q-340 0 -579 240q-240 240 -240 579v3277h819v-3277h2457v3277h820v-3277q0 -340 -241 -579q-240 -240 -579 -240h-2457z" />
    <glyph glyph-name="v" unicode="v" 
d="M2048 0l-2048 4096h819l1229 -2458l1228 2458h820l-2048 -4096v0z" />
    <glyph glyph-name="w" unicode="w" 
d="M0 0v4096h819v-2663l1229 1229l1228 -1229v2663h820v-4096h-615l-1433 1433l-410 -406v-3l-1024 -1024h-614z" />
    <glyph glyph-name="x" unicode="x" 
d="M0 0l1536 2048l-102 136h-1l-1433 1912h1024l1024 -1366l1024 1366h1024l-1434 -1912h-1l-101 -136l1536 -2048h-1024l-1024 1365l-1024 -1365h-1024z" />
    <glyph glyph-name="y" unicode="y" 
d="M1638 0v1911l-1638 2185h1024l1024 -1366l1024 1366h1024l-1639 -2185v-1911h-819z" />
    <glyph glyph-name="z" unicode="z" 
d="M0 0v614l2662 2662h-2662v820h4096v-615l-2663 -2662h2663v-819h-4096z" />
    <glyph glyph-name="braceleft" unicode="{" 
d="M2457 0q-340 0 -579 240q-240 240 -240 579v819l-819 410l819 409v819q0 340 240 579q240 241 579 241h819v-820h-819v-819q0 -169 -120 -290q-120 -119 -289 -119q169 0 289 -120q120 -121 120 -290v-819h819v-819h-819z" />
    <glyph glyph-name="bar" unicode="|" 
d="M1638 0v4096h819v-4096h-819z" />
    <glyph glyph-name="braceright" unicode="}" 
d="M819 0v819h819v819q0 169 120 290q120 120 290 120q-170 0 -290 119q-120 121 -120 290v819h-819v820h819q339 0 579 -241q240 -239 240 -579v-819l819 -409l-819 -410v-819q0 -339 -240 -579q-239 -240 -579 -240h-819z" />
    <glyph glyph-name="asciitilde" unicode="~" 
d="M2457 819q-339 0 -579 240q-240 239 -240 579v819h-819v-819h-819v819q0 339 240 579q239 240 579 240h819q339 0 579 -240q240 -239 240 -579v-819h819v819h820v-819q0 -339 -241 -579q-239 -240 -579 -240h-819z" />
    <glyph glyph-name="acute" unicode="&#xb4;" 
d="M1638 3276v410l819 410v-410l-819 -410v0z" />
    <glyph glyph-name="upsilon" unicode="&#x3c5;" 
d="M1638 0v1911l-1638 2185h1024l1024 -1366l1024 1366h1024l-1639 -2185v-1911h-819z" />
    <glyph glyph-name="quoteleft" unicode="&#x2018;" 
d="M1638 2867v409q0 339 238 578t576 242v0q-168 -3 -287 -123q-117 -119 -117 -287h409v-819h-819z" />
    <glyph glyph-name="quoteright" unicode="&#x2019;" 
d="M1643 2867q168 2 287 122q118 119 118 287h-410v820h819v-410q0 -338 -238 -578q-238 -239 -576 -241v0z" />
    <glyph glyph-name="quotedblleft" unicode="&#x201c;" 
d="M819 2867v409q0 339 238 578t576 242v0q-168 -3 -287 -123q-118 -119 -118 -287h410v-819h-819zM2457 2867v409q0 339 238 578t576 242v0q-168 -3 -286 -123q-118 -119 -118 -287h409v-819h-819z" />
    <glyph glyph-name="quotedblright" unicode="&#x201d;" 
d="M824 2867q168 2 286 122q118 119 118 287h-409v820h819v-410q0 -338 -238 -578q-238 -239 -576 -241v0zM2462 2867q168 2 287 122q118 119 118 287h-410v820h819v-410q0 -338 -238 -578q-238 -239 -576 -241v0z" />
  </font>
</defs>
</svg>
